<svg xmlns="http://www.w3.org/2000/svg" viewBox="0 0 100 100" width="100" height="100">
  <!-- Background Thai Flower Motif (Golden) - Traced from Logo -->
  <g transform="translate(50,50) scale(0.08) translate(-512,-500)" stroke="#FABB49" fill="#FABB49" fill-opacity="0.03" opacity="0.4" stroke-width="15" stroke-linejoin="round" stroke-linecap="round">
    <path d="" />
    
        <!-- Golden Star in Center -->
    <path d="M 512.0 366.0 L 547.3 457.5 L 645.2 462.7 L 569.1 524.5 L 594.3 619.3 L 512.0 566.0 L 429.7 619.3 L 454.9 524.5 L 378.8 462.7 L 476.7 457.5 Z" fill="#FABB49" fill-opacity="0.35" stroke="#FABB49" stroke-width="15" stroke-linejoin="round" stroke-linecap="round" />
  </g>

  <!-- Foreground: Puffy/Comic Pricing/Tag Icon -->
  <g opacity="0.9">
    <!-- Balloon Tag -->
    <path d="M 34,46 L 46,34 C 50,30 56,30 60,34 L 74,48 C 78,52 78,58 74,62 L 62,74 C 58,78 52,78 48,74 L 34,60 C 30,56 30,50 34,46 Z" fill="#E2E8F0" fill-opacity="0.25" transform="translate(3, 2.5)" />
    <path d="M 34,46 L 46,34 C 50,30 56,30 60,34 L 74,48 C 78,52 78,58 74,62 L 62,74 C 58,78 52,78 48,74 L 34,60 C 30,56 30,50 34,46 Z" fill="none" stroke="#424245" stroke-width="3.5" stroke-linejoin="round" />
    
    <path d="M 40,40 L 63,63" stroke="#424245" stroke-width="2.5" stroke-linecap="round" />
    
    <!-- Eyelet -->
    <circle cx="48" cy="48" r="4.5" fill="#8B8B8B" />
    
    <!-- Rounded Baht Sign -->
    <path d="M 50,38 V 68 M 50,42 H 58 C 62,42 62,51 58,51 H 50 M 50,51 H 60 C 64,51 64,62 60,62 H 50" fill="none" stroke="#424245" stroke-width="5" stroke-linecap="round" stroke-linejoin="round" transform="translate(1.5, 1.5)" />
    <path d="M 50,38 V 68 M 50,42 H 58 C 62,42 62,51 58,51 H 50 M 50,51 H 60 C 64,51 64,62 60,62 H 50" fill="none" stroke="#FABB49" stroke-width="3.5" stroke-linecap="round" stroke-linejoin="round" />
  </g>
</svg>